<svg xmlns="http://www.w3.org/2000/svg" xmlns:xlink="http://www.w3.org/1999/xlink" width="883.858" height="521.87" viewBox="0 0 883.858 521.87">
  <defs>
    <linearGradient id="linear-gradient" x1="0.5" y1="0.362" x2="0.5" y2="0.882" gradientUnits="objectBoundingBox">
      <stop offset="0" stop-color="#dfe9fd"/>
      <stop offset="0.532" stop-color="#dfe9fd" stop-opacity="0.776"/>
      <stop offset="1" stop-color="#fff" stop-opacity="0"/>
    </linearGradient>
  </defs>
  <g id="our_img_1" transform="translate(-888.782 -2165.301)">
    <path id="Path_289" data-name="Path 289" d="M1254.819,833.77s-105.873-122.431-17.9-254.979c78.051-117.607,169.052-109.567,235.817-61.842,28.437,20.327,110.421,2.505,180.2-117.164,95.16-163.2,425.02-64.217,364.877,186.864-29.106,121.505,88.579,125.922,28.614,247.378Z" transform="translate(-313.193 1845.397)" fill="#dfe9fd" opacity="0.49" style="mix-blend-mode: multiply;isolation: isolate"/>
    <path id="Path_362" data-name="Path 362" d="M1254.819,833.77s-105.873-122.431-17.9-254.979c78.051-117.607,169.052-109.567,235.817-61.842,28.437,20.327,110.421,2.505,180.2-117.164,95.16-163.2,425.02-64.217,364.877,186.864-29.106,121.505,88.579,125.922,28.614,247.378Z" transform="translate(-291.063 1853.143)" opacity="0.588" fill="url(#linear-gradient)" style="mix-blend-mode: multiply;isolation: isolate"/>
    <g id="Group_65" data-name="Group 65" transform="translate(1527.417 2537.496)">
      <path id="Path_290" data-name="Path 290" d="M2860.108,1562.2s36.263-98.193,62.759-92.527S2860.108,1562.2,2860.108,1562.2Z" transform="translate(-2833.799 -1469.435)" fill="#6ea629"/>
      <path id="Path_291" data-name="Path 291" d="M2863.1,1580.963s98.8-118.929,143.492-103.674-21.844,43.358-47.458,51.78S2863.1,1580.963,2863.1,1580.963Z" transform="translate(-2835.593 -1473.33)" fill="#6ea629"/>
      <path id="Path_292" data-name="Path 292" d="M2809.874,1617.032s-.971-3.48-2.451-8.545c-2.89-9.882-7.719-25.8-11.066-33.677-5.064-11.918.221-24.745,16.272-17.965s-.381,55.067-.381,55.067Z" transform="translate(-2794.504 -1520.664)" fill="#6ea629"/>
    </g>
    <g id="Group_66" data-name="Group 66" transform="translate(1005.031 2408.924)">
      <path id="Path_293" data-name="Path 293" d="M1556.061,1306.046s-68.6-27.9-63.979-46.508S1556.061,1306.046,1556.061,1306.046Z" transform="translate(-1491.859 -1213.137)" fill="#6ea629"/>
      <path id="Path_294" data-name="Path 294" d="M1624.556,1263.035s-81.818-72.6-70-103.851,30.155,16.445,35.52,34.751S1624.556,1263.035,1624.556,1263.035Z" transform="translate(-1528.713 -1148.825)" fill="#6ea629"/>
      <path id="Path_295" data-name="Path 295" d="M1585.84,1390.229c-7.054,1.815-18.419,4.863-24.068,7.049-8.544,3.306-17.492-.727-12.328-11.92s42.495,3.335,42.495,3.335S1589.456,1389.3,1585.84,1390.229Z" transform="translate(-1525.44 -1287.965)" fill="#6ea629"/>
    </g>
    <path id="Path_296" data-name="Path 296" d="M2745.111,989.315c-14.564-26.2-59.786-5.683-59.786-5.683s-20.006,57.124-29.079,60.614,7.568-52.18,7.568-52.18c-18.574,2.738-59.291,36.425-59.291,36.425s17.132,56.619,7.479,57.768-12.611-50.907-12.611-50.907c-16.25,9.615-27.559,34.153-27.559,34.153-12.218,38.426,37.756,52.13,37.756,52.13s5.514,19.749-1.121,45.614h0a69.733,69.733,0,0,0-2.774,12.761l4.786-1.186c.073-1.38.2-2.727.379-4.036a.032.032,0,0,1,0-.024c0-.019.006-.038.008-.056.145-.821.355-1.99.625-3.417l0-.006s0,0,0-.007c.753-3.224,1.217-5.583,1.464-7.265a.065.065,0,0,0,0-.015c2.155-10.07,5.566-23.34,9.167-26.838a9.544,9.544,0,0,1-1.568-1.941l1.568,1.941c12.541,15.525,54.225,8.3,75.885-2.031s10.119-14.307-4.757-21.709-39.94,1.73-48.561-.481,1.482-9.062,16.985-11.661,26.879,10.73,52.035,6.982,32.428-54.612,32.428-54.612c-15.665,9.47-48.411,7.646-51.03,2.085s42.58-16.138,49.167-19.633S2759.676,1015.518,2745.111,989.315Z" transform="translate(-1132.559 1363.625)" fill="#6ea629"/>
    <path id="Path_297" data-name="Path 297" d="M1718.079,972.507c15.3-12.544,38.065,11.021,38.065,11.021s-1.587,39.908,3.133,44.251,8.019-33.855,8.019-33.855c10.733,6.188,27.543,36.74,27.543,36.74s-24.253,30.585-18.609,33.633,20.093-28.177,20.093-28.177c7.637,9.844,8.623,27.646,8.623,27.646-1.829,26.544-35.819,22.825-35.819,22.825s-8.177,10.781-10.382,28.262h0a46,46,0,0,1-1.395,8.5l-2.649-1.889q.435-1.3.747-2.569a.017.017,0,0,0,0-.016c0-.012.006-.024.009-.037.111-.539.265-1.307.446-2.248v0s0,0,0-.005c.321-2.161.608-3.722.865-4.813a.039.039,0,0,1,0-.01c1.121-6.7,2.248-15.673.888-18.693a6.3,6.3,0,0,0,1.433-.811l-1.433.811c-11.463,6.483-35.289-8.064-46.073-19.662s-2.737-11.235,8.188-12.167,24.088,10.754,29.915,11.489,1.29-5.92-7.592-11.277-19.1.062-33.625-8.343-6.645-41.381-6.645-41.381c7.314,9.612,27.851,16.44,30.808,13.663s-22.212-20.236-25.406-23.98S1702.783,985.051,1718.079,972.507Z" transform="translate(-611.319 1367.914)" fill="#6ea629"/>
    <path id="Path_298" data-name="Path 298" d="M1334.522,1604.717c-12.044-18.282,16.518-40.629,16.518-40.629s43.744,6.346,49.069,1.651-36.341-12.729-36.341-12.729c8.048-11.1,43.615-26.083,43.615-26.083s30.871,30.221,34.876,24.359-28.7-25.364-28.7-25.364c11.715-7.273,31.424-6.305,31.424-6.305,29.007,5.072,21,42.057,21,42.057s10.924,10.242,29.912,14.684h0a50.936,50.936,0,0,1,9.2,2.515l-2.385,2.7c-.918-.419-1.832-.794-2.741-1.118a.025.025,0,0,0-.017-.006l-.039-.014c-.581-.184-1.409-.442-2.424-.75h0s0,0-.005,0c-2.342-.6-4.026-1.1-5.2-1.507l-.01,0c-7.248-2.006-16.993-4.281-20.474-3.131a6.966,6.966,0,0,0-.727-1.672l.727,1.672c5.815,13.364-12.943,37.913-26.952,48.446s-12.682,1.719-12.449-10.414,14.613-25.275,16.094-31.6-6.368-2.1-13.288,7.058-2.133,21.028-13.058,36.049-46.315,2.546-46.315,2.546c11.423-6.943,21.305-28.761,18.589-32.336s-24.834,22.117-29.322,25.2S1346.566,1623,1334.522,1604.717Z" transform="translate(-390.811 1038.028)" fill="#7c409c"/>
    <g id="Group_75" data-name="Group 75" transform="translate(1044.105 2540.574)">
      <g id="Group_74" data-name="Group 74" transform="translate(0 0)">
        <path id="Rectangle_22" data-name="Rectangle 22" d="M0,0H212.084A38.185,38.185,0,0,1,250.27,38.185v0a39.052,39.052,0,0,1-39.052,39.052H0a0,0,0,0,1,0,0V0A0,0,0,0,1,0,0Z" transform="translate(11.611 0.001)" fill="#eaeaea"/>
        <path id="Path_312" data-name="Path 312" d="M2037.834,1508.891v11.619a33.829,33.829,0,0,1-33.842,33.838H1594.2a4.907,4.907,0,0,1-4.909-4.9v-1.74a4.907,4.907,0,0,1,4.909-4.9h249.8a31.53,31.53,0,0,0,7.168-20.035v-14.77a30.756,30.756,0,0,0-6.8-19.329H1594.2a4.908,4.908,0,0,1-4.909-4.909v-1.735a4.908,4.908,0,0,1,4.909-4.909h411.852a31.756,31.756,0,0,1,31.778,31.779Z" transform="translate(-1589.295 -1477.112)" fill="#6ea629"/>
        <path id="Path_313" data-name="Path 313" d="M2036.609,1500.134H1850.163a30.822,30.822,0,0,0-5.792-11.469H1594.2a4.908,4.908,0,0,1-4.909-4.909v-1.735a4.908,4.908,0,0,1,4.909-4.909h411.852A31.785,31.785,0,0,1,2036.609,1500.134Z" transform="translate(-1589.295 -1477.112)" fill="#53811a"/>
      </g>
      <path id="Path_314" data-name="Path 314" d="M1618.248,1573.415l30.342,1.3-30.342.782Z" transform="translate(-1606.638 -1534.795)" fill="#b5b5b5"/>
      <path id="Path_315" data-name="Path 315" d="M1618.248,1603.635l72.186,1.3-72.186.782Z" transform="translate(-1606.638 -1552.897)" fill="#b5b5b5"/>
    </g>
    <g id="Group_79" data-name="Group 79" transform="translate(1055.314 2617.65)">
      <g id="Group_77" data-name="Group 77" transform="translate(0 0)">
        <g id="Group_76" data-name="Group 76">
          <path id="Path_316" data-name="Path 316" d="M1702.024,1729.388h232.8v-60.077H1700.135a29.094,29.094,0,0,0-29.094,29.094h0A30.983,30.983,0,0,0,1702.024,1729.388Z" transform="translate(-1671.041 -1669.311)" fill="#7f3fad"/>
          <path id="Rectangle_23" data-name="Rectangle 23" d="M0,0H264.823A30.375,30.375,0,0,1,295.2,30.375v0a29.7,29.7,0,0,1-29.7,29.7H0a0,0,0,0,1,0,0V0A0,0,0,0,1,0,0Z" transform="translate(515.364 60.077) rotate(180)" fill="#eaeaea"/>
          <path id="Path_317" data-name="Path 317" d="M2169.231,1805.7h322.09a4.493,4.493,0,0,0,4.493-4.493h0a4.493,4.493,0,0,0-4.493-4.492h-322.09a4.493,4.493,0,0,0-4.493,4.492h0A4.493,4.493,0,0,0,2169.231,1805.7Z" transform="translate(-1966.756 -1745.624)" fill="#7f3fad"/>
          <path id="Path_318" data-name="Path 318" d="M2169.231,1678.3h322.09a4.493,4.493,0,0,0,4.493-4.492h0a4.493,4.493,0,0,0-4.493-4.493h-322.09a4.493,4.493,0,0,0-4.493,4.493h0A4.493,4.493,0,0,0,2169.231,1678.3Z" transform="translate(-1966.756 -1669.311)" fill="#7f3fad"/>
        </g>
        <path id="Path_319" data-name="Path 319" d="M2902.721,1744.216l-35.79,1.01,35.79.609Z" transform="translate(-2387.356 -1714.177)" fill="#b5b5b5"/>
        <path id="Path_320" data-name="Path 320" d="M2829,1709.739l-85.145,1.01,85.145.608Z" transform="translate(-2313.636 -1693.526)" fill="#b5b5b5"/>
      </g>
      <g id="Group_78" data-name="Group 78" transform="translate(431.096 17.022)">
        <path id="Path_321" data-name="Path 321" d="M2746.041,1711.757a14.015,14.015,0,0,1,4.857,6.824,9.754,9.754,0,0,1,.378,2.374c.2,5.637,0,18.4,0,18.4l10.773-6.38,10.744,6.38v-17.292a13.727,13.727,0,0,0-2.633-8.533,4.077,4.077,0,0,0-2.976-1.768Z" transform="translate(-2746.041 -1711.757)" fill="#7f3fad"/>
        <path id="Path_322" data-name="Path 322" d="M2746.041,1711.757a14.015,14.015,0,0,1,4.857,6.824l21.588.253s-.847-6.076-5.3-7.077Z" transform="translate(-2746.041 -1711.757)" fill="#7f3fad"/>
      </g>
    </g>
    <g id="Group_83" data-name="Group 83" transform="translate(1061.237 2452.471)">
      <g id="Group_81" data-name="Group 81" transform="translate(0 0)">
        <g id="Group_80" data-name="Group 80">
          <path id="Rectangle_24" data-name="Rectangle 24" d="M0,0H228.5a44.628,44.628,0,0,1,44.628,44.628v0a43.638,43.638,0,0,1-43.638,43.638H0a0,0,0,0,1,0,0V0A0,0,0,0,1,0,0Z" transform="translate(476.826 88.266) rotate(180)" fill="#eaeaea"/>
          <path id="Path_323" data-name="Path 323" d="M1835.585,1291.665v19a21.953,21.953,0,0,0,11.149,18.916,22.189,22.189,0,0,0,10.994,2.9h258.3a5.482,5.482,0,0,1,5.481,5.481v2.241a5.482,5.482,0,0,1-5.481,5.481H1669.808a37.79,37.79,0,0,1-37.793-37.792V1292.9a35.466,35.466,0,0,1,35.485-35.485h448.53a5.478,5.478,0,0,1,5.481,5.477v2.241a5.482,5.482,0,0,1-5.481,5.482H1856.938a21.4,21.4,0,0,0-15.712,6.853A21,21,0,0,0,1835.585,1291.665Z" transform="translate(-1632.016 -1257.417)" fill="#ff7846"/>
          <path id="Path_324" data-name="Path 324" d="M2131.728,1445.741v2.241a5.482,5.482,0,0,1-5.481,5.481H1680.024a37.737,37.737,0,0,1-30.953-16.107H1856.95a22.2,22.2,0,0,0,10.994,2.9h258.3A5.482,5.482,0,0,1,2131.728,1445.741Z" transform="translate(-1642.232 -1365.197)" fill="#d35c2f"/>
        </g>
        <path id="Path_325" data-name="Path 325" d="M2771.593,1367.467l-33.113,1.484,33.113.894Z" transform="translate(-2294.766 -1323.333)" fill="#b5b5b5"/>
        <path id="Path_326" data-name="Path 326" d="M2703.386,1316.812l-78.778,1.484,78.778.894Z" transform="translate(-2226.56 -1292.992)" fill="#b5b5b5"/>
      </g>
      <g id="Group_82" data-name="Group 82" transform="translate(398.859 25.009)">
        <path id="Path_327" data-name="Path 327" d="M2626.63,1319.777s5.2,2.8,6.921,7.4a8.288,8.288,0,0,1,.538,2.573c.287,6.112,0,19.946,0,19.946l15.35-6.917,15.31,6.917v-18.75a12.622,12.622,0,0,0-3.753-9.253,6.346,6.346,0,0,0-4.24-1.918Z" transform="translate(-2626.63 -1319.777)" fill="#7c409c"/>
        <path id="Path_328" data-name="Path 328" d="M2626.63,1319.777s5.2,2.8,6.921,7.4l30.76.274s-1.207-6.588-7.555-7.674Z" transform="translate(-2626.63 -1319.777)" fill="#4a2c6a"/>
      </g>
    </g>
    <g id="Group_85" data-name="Group 85" transform="translate(1239.1 2241.72)">
      <path id="Path_329" data-name="Path 329" d="M2257.641,919.377s7.308,10.813,11.475,33.545c3.65,19.909,6.851,27.258,12.122,31.341s34.641,16.137,34.641,16.137l-2.2,5.145s-43.047-5.863-47.882-13.057-23.269-49.7-21.839-59.491S2257.641,919.377,2257.641,919.377Z" transform="translate(-2176.376 -844.186)" fill="#b56f40"/>
      <path id="Path_330" data-name="Path 330" d="M2537.588,1467.106c-.387,4.2,5.458,5.219,12.227,5.557s4.724,1.723,14,3.4,12.995-.858,13.667-2.112c.6-1.112-3.715-2.852-8.312-4.817-.579-.245-1.157-.5-1.737-.752-5.173-2.274-8.076-6.914-12.109-11.216-3.82-4.074-7.447-17.119-7.447-17.119l-12.607-2.692s3.54,11.741,4.769,16.754c.722,2.948-.344,6.245-1.29,8.754A16.5,16.5,0,0,0,2537.588,1467.106Z" transform="translate(-2350.911 -1154.446)" fill="#b56f40"/>
      <path id="Path_331" data-name="Path 331" d="M2553.251,1510.761c6.77.337,4.723,1.723,14,3.4s13-.858,13.667-2.112c.6-1.112-3.715-2.852-8.312-4.817l-.071.078a26.415,26.415,0,0,1-14.052.168c-6.137-1.667-12.071-5.334-16.3-6.519a16.514,16.514,0,0,0-1.16,4.241C2540.637,1509.4,2546.482,1510.424,2553.251,1510.761Z" transform="translate(-2354.347 -1192.545)" fill="#4a2c76"/>
      <path id="Path_332" data-name="Path 332" d="M2203.45,1124.649s83.772-6.3,99.543,3.648,41.064,125.89,41.064,125.89a10.278,10.278,0,0,1-5.047,1.629c-3.241.351-10.384-1.556-10.384-1.556s-36.35-51.874-38.911-64.941-1.936-24.729-7.766-25.042-78.51,8.836-89.5-10.531-1.906-38.54-1.906-38.54Z" transform="translate(-2142.31 -961.483)" fill="#2c3a64"/>
      <path id="Path_333" data-name="Path 333" d="M2457.655,1500.659c-.387,4.2,5.457,5.219,12.227,5.557s4.724,1.723,14,3.4,12.995-.859,13.666-2.113c.6-1.112-3.715-2.851-8.311-4.817-.579-.245-1.158-.5-1.737-.752-5.173-2.274-8.075-6.914-12.109-11.216-3.821-4.074-7.448-17.12-7.448-17.12l-12.607-2.692s3.539,11.741,4.768,16.753c.724,2.949-.344,6.245-1.29,8.753A16.482,16.482,0,0,0,2457.655,1500.659Z" transform="translate(-2303.032 -1174.544)" fill="#b56f40"/>
      <path id="Path_334" data-name="Path 334" d="M2473.317,1544.314c6.77.337,4.724,1.724,14,3.4s12.995-.859,13.667-2.112c.6-1.112-3.715-2.851-8.312-4.817l-.071.079a26.417,26.417,0,0,1-14.052.168c-6.137-1.666-12.071-5.333-16.3-6.519a16.468,16.468,0,0,0-1.16,4.241C2460.7,1542.956,2466.548,1543.976,2473.317,1544.314Z" transform="translate(-2306.468 -1212.642)" fill="#4a2c76"/>
      <path id="Path_335" data-name="Path 335" d="M2151.708,1151.7s74.418,3.523,89.789,14.082,36.133,127.392,36.133,127.392a10.287,10.287,0,0,1-5.107,1.431c-3.253.224-10.316-1.959-10.316-1.959s-34.3-53.25-36.354-66.407-.971-24.786-6.785-25.325-78.794,5.773-89.026-14.008S2151.708,1151.7,2151.708,1151.7Z" transform="translate(-2106.975 -983.343)" fill="#35488b"/>
      <path id="Path_336" data-name="Path 336" d="M2146.793,736.475c-3.3-2.18-7.4-2.667-10.29-2.689a4.885,4.885,0,0,1,2.268-.9c-1.766-.384-5.866,1.12-5.866,1.12-24.179-11.217-30.516,25.063-30.56,33.588s-.637,18.3-13.534,25.086c-25.374,13.356-6.551,40.879-6.551,40.879.185.126,16.91,22.274,16.91,22.274-.169-6.9,27.061-43.489,44.3-53.23,4.415-5.65,6.541-16.01,6.7-16.826-1.247,8.243-2.975,12.8-4.417,15.333C2160.595,789.175,2155.546,742.251,2146.793,736.475Z" transform="translate(-2075.543 -731.877)" fill="#552e41"/>
      <path id="Path_337" data-name="Path 337" d="M2179.123,887.881a83.791,83.791,0,0,1,13.86,0,44.537,44.537,0,0,1,12.027,3.018c6.559,2.742,5.871,14.354-7.892,12.2S2178.159,891.325,2179.123,887.881Z" transform="translate(-2137.518 -825.145)" fill="#b56f40"/>
      <path id="Path_338" data-name="Path 338" d="M2205.554,870.892c.081.042,1.963,9.989-7.048,9.592-5.915-.261-18.674-7.419-17.547-12.484.535-2.408,5.006-8.654,5.9-22.912l1.077.288,18.106,4.857s-.8,5.747-1.178,11.185C2204.553,865.984,2204.541,870.334,2205.554,870.892Z" transform="translate(-2138.644 -799.688)" fill="#b56f40"/>
      <path id="Path_339" data-name="Path 339" d="M2216.58,850.662s-.8,5.747-1.177,11.185c-10.249-.974-15.051-10.7-16.929-16.042Z" transform="translate(-2149.176 -800.118)" fill="#99592e"/>
      <path id="Path_340" data-name="Path 340" d="M2185.606,785.194s-4.813-8.861-5.62-16.217c-.576-5.252,3.35-24.314,22.5-20.254a26.326,26.326,0,0,1,10.619,4.844c4.008,3.115,9.658,9.639,1.766,25.976l-2.138,5.554Z" transform="translate(-2138.072 -741.631)" fill="#552e41"/>
      <path id="Path_341" data-name="Path 341" d="M2216.432,809.048s-24.32-1.219-23.327-16.353-1.478-25.483,14.091-25.345,18.2,6.111,19.1,11.242S2222.784,808.975,2216.432,809.048Z" transform="translate(-2145.943 -753.124)" fill="#b56f40"/>
      <path id="Path_342" data-name="Path 342" d="M2206.878,763.037s-7.835,17.31-18.218,19.254-14.628-1.086-14.628-1.086a28.97,28.97,0,0,0,10.593-16.447S2202.424,754.252,2206.878,763.037Z" transform="translate(-2134.536 -748.443)" fill="#552e41"/>
      <path id="Path_343" data-name="Path 343" d="M2251.588,767.679s4.7,4.295,5.658,8.229.97,11.9,3.3,11.788c0,0,5.816-11.733.64-18.934C2255.7,761.125,2251.588,767.679,2251.588,767.679Z" transform="translate(-2180.991 -751.754)" fill="#552e41"/>
      <path id="Path_344" data-name="Path 344" d="M2196.63,990.015c-1.969,2.354-8.114,3.076-14.681,4.156-5.167.853-10.6,1.923-14.457,4.191-8.767,5.146-37.409,22.542-45.8,21.751-3.254-.306-2.646-6.52-.674-14.763,3.1-13.019,9.6-31.1,9.6-38.961,0-4.29,1.428-14.444,3.334-26.052q.232-1.4.471-2.832c3.771-22.57,8.994-49.183,8.994-49.183s5.824,12.709,17.176,12.709,8.711-9.692,8.711-9.692,10.356,1.218,12.8,3.853,8.653,14.027,9.885,17.134c0,0,.251,3.953-9.538,5.835,0,0,2.385,10.732,2.667,17.884.21,5.285-3.606,21.823-4.7,32.111-.389,3.643-.441,6.5.151,7.8.757,1.662,3.207,3.317,5.994,4.94C2192.088,984.118,2198.966,987.218,2196.63,990.015Z" transform="translate(-2101.807 -825.584)" fill="#eaeaea"/>
      <path id="Path_345" data-name="Path 345" d="M2186.556,1044.1c6.282,10.711-17.038,13.931-20.9,16.2-8.767,5.147-35.575,23.809-43.971,23.017-3.254-.306-2.646-6.52-.674-14.763,3.1-13.019,9.6-31.1,9.6-38.961,0-4.29,1.428-14.443,3.334-26.052l10.1-9.7s10.828,27.985,21.15,32.572a86.807,86.807,0,0,0,15.21,4.951c-.389,3.643-.441,6.5.151,7.8C2181.319,1040.819,2183.769,1042.474,2186.556,1044.1Z" transform="translate(-2101.807 -888.784)" fill="#c8d1ce"/>
      <path id="Path_346" data-name="Path 346" d="M2142.437,907.146s-8.639-5.246-16.993,4.707,5.937,81.1,18.315,84.759c13.748,4.06,53.466-.65,53.466-.65l-.765-6.207s-42.283-8.107-44.04-10.366S2146.83,908.294,2142.437,907.146Z" transform="translate(-2103.939 -836.032)" fill="#b56f40"/>
      <path id="Path_347" data-name="Path 347" d="M2135.144,888.318s-17.743,1.6-22.9,7.437-6.659,21.65-6.659,21.65,15.626,12.614,34.452,7.719Z" transform="translate(-2093.54 -825.582)" fill="#eaeaea"/>
      <g id="Group_84" data-name="Group 84" transform="translate(86.927 119.715)">
        <rect id="Rectangle_25" data-name="Rectangle 25" width="31.79" height="3.756" transform="translate(0 43.402)" fill="#d35c2f"/>
        <path id="Path_348" data-name="Path 348" d="M2354.744,1077.047c.311-1.243,29.224-46.643,29.224-46.643H2448.3l-32.267,45.424Z" transform="translate(-2329.706 -1030.404)" fill="#d35c2f"/>
        <path id="Path_349" data-name="Path 349" d="M2361.493,1077.561c.312-1.243,29.317-47.158,29.317-47.158h61.531l-30.7,47.158Z" transform="translate(-2333.748 -1030.404)" fill="#ff7846"/>
        <path id="Path_350" data-name="Path 350" d="M2478.246,1088.152a5.138,5.138,0,0,1-4.478,3.33c-1.84,0-2.817-1.491-2.183-3.33a5.138,5.138,0,0,1,4.478-3.331C2477.9,1084.821,2478.879,1086.313,2478.246,1088.152Z" transform="translate(-2399.575 -1062.999)" fill="#d35c2f"/>
      </g>
      <path id="Path_351" data-name="Path 351" d="M2297.658,1111.142s13.767-2.665,15.322-2,10.215,8.438,9.326,9.992-4.442,2.664-8.438,1.332-12.656-2-14.211-4A13.05,13.05,0,0,1,2297.658,1111.142Z" transform="translate(-2208.586 -957.788)" fill="#b56f40"/>
    </g>
    <path id="Path_360" data-name="Path 360" d="M487.516,282.417s-6.177-18.531,9.266-27.8A123.045,123.045,0,0,0,523.035,233s7.721,41.7-9.266,61.772c0,0,26.253,0,41.7-10.81,0,0-9.266,27.8-44.784,29.341a273.219,273.219,0,0,0,43.24,33.974s-4.633,4.633-40.152-21.62c0,0-27.2,1.124-39.407-12.953a42.614,42.614,0,0,1-10.344-30.311s-2.442-.718-3.736-1.293,2.171-2.758,3.879-5.89c1.723-3.161,5.459-2.874,6.608-2.874s4.884.718,10.631,7.182S487.516,282.417,487.516,282.417Z" transform="translate(1111.033 2020.5)" fill="#7f3fad"/>
    <g id="Group_73" data-name="Group 73" transform="translate(1126.762 2188.098)">
      <rect id="Rectangle_18" data-name="Rectangle 18" width="79.276" height="76.91" rx="16.627" transform="translate(0 0)" fill="#7c409c"/>
      <rect id="Rectangle_19" data-name="Rectangle 19" width="72.407" height="70.246" rx="15.186" transform="translate(3.435 3.332)" fill="#ebe7f7"/>
      <g id="Group_69" data-name="Group 69" transform="translate(9.36 8.709)">
        <g id="Group_67" data-name="Group 67" transform="translate(28.636)">
          <path id="Path_299" data-name="Path 299" d="M1890.16,465.154a1.642,1.642,0,1,1,1.642,1.642A1.643,1.643,0,0,1,1890.16,465.154Z" transform="translate(-1890.16 -463.512)" fill="#7c409c"/>
          <path id="Path_300" data-name="Path 300" d="M1922.894,472.133a1.642,1.642,0,1,1,.638,2.233A1.642,1.642,0,0,1,1922.894,472.133Z" transform="translate(-1909.643 -468.17)" fill="#7c409c"/>
          <path id="Path_301" data-name="Path 301" d="M1950.388,495.494a1.642,1.642,0,1,1-.49,2.27A1.641,1.641,0,0,1,1950.388,495.494Z" transform="translate(-1925.785 -482.511)" fill="#7c409c"/>
          <path id="Path_302" data-name="Path 302" d="M1963.08,530.7a1.642,1.642,0,1,1-1.643,1.642A1.642,1.642,0,0,1,1963.08,530.7Z" transform="translate(-1932.854 -503.754)" fill="#7c409c"/>
          <path id="Path_303" data-name="Path 303" d="M1954.187,570.375a1.642,1.642,0,1,1-2.322,0A1.642,1.642,0,0,1,1954.187,570.375Z" transform="translate(-1926.832 -527.233)" fill="#7c409c"/>
          <path id="Path_304" data-name="Path 304" d="M1928.472,596.157a1.642,1.642,0,1,1-2.322,0A1.642,1.642,0,0,1,1928.472,596.157Z" transform="translate(-1911.429 -542.675)" fill="#7c409c"/>
          <path id="Path_305" data-name="Path 305" d="M1890.16,607.711a1.642,1.642,0,1,1,1.642,1.642A1.643,1.643,0,0,1,1890.16,607.711Z" transform="translate(-1890.16 -548.901)" fill="#7c409c"/>
        </g>
        <g id="Group_68" data-name="Group 68" transform="translate(0 3.118)">
          <path id="Path_306" data-name="Path 306" d="M1860.58,472.133a1.642,1.642,0,1,0-.638,2.233A1.642,1.642,0,0,0,1860.58,472.133Z" transform="translate(-1841.962 -471.288)" fill="#7c409c"/>
          <path id="Path_307" data-name="Path 307" d="M1833.085,495.494a1.642,1.642,0,1,0,.49,2.27A1.641,1.641,0,0,0,1833.085,495.494Z" transform="translate(-1825.82 -485.629)" fill="#7c409c"/>
          <path id="Path_308" data-name="Path 308" d="M1820.393,530.7a1.642,1.642,0,1,0,1.642,1.642A1.642,1.642,0,0,0,1820.393,530.7Z" transform="translate(-1818.751 -506.872)" fill="#7c409c"/>
          <path id="Path_309" data-name="Path 309" d="M1829.287,570.375a1.642,1.642,0,1,0,2.322,0A1.642,1.642,0,0,0,1829.287,570.375Z" transform="translate(-1824.774 -530.351)" fill="#7c409c"/>
          <path id="Path_310" data-name="Path 310" d="M1855,596.157a1.642,1.642,0,1,0,2.322,0A1.642,1.642,0,0,0,1855,596.157Z" transform="translate(-1840.176 -545.794)" fill="#7c409c"/>
        </g>
      </g>
      <g id="Group_72" data-name="Group 72" transform="translate(39.195 16.778)">
        <path id="Path_311" data-name="Path 311" d="M1893.151,532.338a1.642,1.642,0,1,1,1.642,1.642A1.642,1.642,0,0,1,1893.151,532.338Z" transform="translate(-1893.151 -511.823)" fill="#7c409c"/>
        <rect id="Rectangle_20" data-name="Rectangle 20" width="0.448" height="20.515" transform="translate(1.418)" fill="#7c409c"/>
        <rect id="Rectangle_21" data-name="Rectangle 21" width="13.827" height="1.345" transform="translate(1.02 19.957) rotate(-38.134)" fill="#7c409c"/>
      </g>
    </g>
  </g>
</svg>
